<?xml version="1.0" encoding="iso-8859-1"?>
<!-- Generator: Adobe Illustrator 19.0.0, SVG Export Plug-In . SVG Version: 6.00 Build 0)  -->
<svg version="1.1" id="Capa_1" xmlns="http://www.w3.org/2000/svg" xmlns:xlink="http://www.w3.org/1999/xlink" x="0px" y="0px"
	 viewBox="0 0 512 512" style="enable-background:new 0 0 512 512;" xml:space="preserve">
<path style="fill:#FFCA5D;" d="M470.831,256l-24.111-10.345c-10.17-4.352-17.641-13.696-19.98-24.995
	c-4.468-21.772-12.975-42.205-25.251-60.765c-6.214-9.379-7.517-20.969-3.503-30.999l9.926-24.809l-24.797,9.926
	c-10.054,4.003-21.644,2.7-30.999-3.503c-18.56-12.288-39.005-20.794-60.765-25.263c-11.299-2.327-20.643-9.786-24.995-19.956
	L256,41.181l-10.345,24.122c-4.364,10.182-13.708,17.641-24.995,19.956c-21.76,4.48-42.205,12.975-60.753,25.263
	c-9.367,6.202-20.957,7.517-30.999,3.503l-24.809-9.926l9.926,24.797c4.015,10.042,2.7,21.632-3.503,30.999
	C98.234,178.455,89.728,198.9,85.26,220.66c-2.327,11.299-9.786,20.643-19.956,24.995L41.181,256l24.122,10.345
	c10.182,4.364,17.641,13.708,19.956,24.995c4.48,21.772,12.975,42.205,25.263,60.753c6.214,9.379,7.517,20.969,3.503,30.999
	l-9.926,24.809l24.797-9.926c3.852-1.536,7.924-2.292,12.009-2.292c6.586,0,13.219,1.955,18.991,5.795
	c18.56,12.288,39.005,20.794,60.765,25.263c11.299,2.327,20.643,9.786,24.995,19.956L256,470.819l10.345-24.122
	c4.364-10.182,13.708-17.641,24.995-19.956c21.76-4.48,42.205-12.975,60.753-25.263c9.367-6.202,20.969-7.505,30.999-3.503
	l24.809,9.926l-9.926-24.797c-4.015-10.042-2.7-21.632,3.503-30.999c12.288-18.56,20.794-39.005,25.263-60.753
	c2.339-11.311,9.809-20.655,19.98-25.007L470.831,256z"/>
<g>
	<path style="fill:#014463;" d="M256,512c-4.655,0-8.867-2.769-10.694-7.052l-21.039-49.071c-1.385-3.223-4.41-5.539-8.308-6.33
		c-24.692-5.085-47.872-14.72-68.911-28.649c-3.06-2.025-6.516-2.502-9.507-1.292L87.54,439.61
		c-4.329,1.722-9.263,0.71-12.556-2.583c-3.293-3.293-4.305-8.227-2.583-12.556l20.003-50.013c1.199-2.991,0.721-6.458-1.292-9.507
		c-13.929-21.039-23.575-44.218-28.649-68.911c-0.803-3.898-3.107-6.924-6.33-8.308L7.063,266.694C2.769,264.867,0,260.655,0,256
		s2.769-8.867,7.052-10.694l49.071-21.039c3.223-1.385,5.539-4.41,6.33-8.308c5.085-24.692,14.72-47.872,28.649-68.911
		c2.025-3.049,2.49-6.516,1.292-9.507L72.401,87.529c-1.722-4.317-0.71-9.251,2.583-12.544c3.281-3.305,8.215-4.294,12.544-2.583
		l50.013,20.003c2.991,1.21,6.447,0.721,9.507-1.292c21.039-13.929,44.218-23.575,68.911-28.649c3.898-0.803,6.924-3.107,8.308-6.33
		l21.039-49.071C247.133,2.769,251.345,0,256,0s8.867,2.769,10.694,7.052l21.039,49.071c1.385,3.223,4.41,5.539,8.308,6.33
		c24.692,5.085,47.872,14.72,68.911,28.649c3.06,2.013,6.516,2.502,9.507,1.292L424.46,72.39c4.329-1.711,9.263-0.721,12.556,2.583
		c3.281,3.293,4.294,8.227,2.572,12.556l-20.003,50.013c-1.199,2.991-0.721,6.458,1.292,9.507
		c13.929,21.05,23.575,44.23,28.649,68.911c0.803,3.887,3.119,6.912,6.342,8.297l49.071,21.039C509.231,247.133,512,251.345,512,256
		s-2.769,8.867-7.052,10.694l-49.071,21.039c-3.223,1.385-5.539,4.41-6.342,8.308c-5.073,24.681-14.72,47.86-28.649,68.911
		c-2.025,3.049-2.49,6.516-1.292,9.507l20.003,50.001c1.722,4.329,0.721,9.263-2.572,12.556c-3.293,3.293-8.227,4.305-12.556,2.583
		l-50.013-20.003c-2.991-1.21-6.447-0.721-9.507,1.292c-21.039,13.929-44.218,23.575-68.911,28.649
		c-3.898,0.803-6.924,3.107-8.308,6.33l-21.039,49.071C264.867,509.231,260.655,512,256,512z M140.905,395.683
		c6.586,0,13.219,1.955,18.991,5.795c18.56,12.288,39.005,20.794,60.765,25.263c11.299,2.327,20.643,9.786,24.995,19.956
		L256,470.819l10.345-24.122c4.364-10.182,13.708-17.641,24.995-19.956c21.76-4.48,42.205-12.975,60.753-25.263
		c9.367-6.202,20.969-7.505,30.999-3.503l24.809,9.926l-9.926-24.797c-4.015-10.042-2.7-21.632,3.503-30.999
		c12.288-18.56,20.794-39.005,25.263-60.753c2.339-11.311,9.809-20.655,19.98-25.007L470.831,256l-24.111-10.345
		c-10.17-4.352-17.641-13.696-19.98-24.995c-4.468-21.772-12.975-42.205-25.251-60.765c-6.214-9.379-7.517-20.969-3.503-30.999
		l9.926-24.809l-24.797,9.926c-10.054,4.003-21.644,2.7-30.999-3.503c-18.56-12.288-39.005-20.794-60.765-25.263
		c-11.299-2.327-20.643-9.786-24.995-19.956L256,41.181l-10.345,24.122c-4.364,10.182-13.708,17.641-24.995,19.956
		c-21.76,4.48-42.205,12.975-60.753,25.263c-9.367,6.202-20.957,7.517-30.999,3.503l-24.809-9.926l9.926,24.797
		c4.015,10.042,2.7,21.632-3.503,30.999C98.234,178.455,89.728,198.9,85.26,220.66c-2.327,11.299-9.786,20.643-19.956,24.995
		L41.181,256l24.122,10.345c10.182,4.364,17.641,13.708,19.956,24.995c4.48,21.772,12.975,42.205,25.263,60.753
		c6.214,9.379,7.517,20.969,3.503,30.999l-9.926,24.809l24.797-9.926C132.748,396.439,136.82,395.683,140.905,395.683z"/>
	<path style="fill:#014463;" d="M186.182,209.455c-3.351,0-6.668-1.443-8.972-4.212c-7.936-9.565-20.689-9.565-28.625,0
		c-4.096,4.945-11.439,5.644-16.384,1.536c-4.945-4.096-5.644-11.427-1.536-16.384c8.483-10.217,19.921-15.849,32.244-15.849
		c12.323,0,23.761,5.632,32.233,15.849c4.108,4.945,3.409,12.288-1.536,16.384C191.43,208.582,188.8,209.455,186.182,209.455z"/>
	<path style="fill:#014463;" d="M325.818,209.455c-3.351,0-6.668-1.443-8.972-4.212c-7.936-9.565-20.689-9.565-28.625,0
		c-4.108,4.945-11.439,5.644-16.384,1.536c-4.945-4.096-5.644-11.427-1.536-16.384c8.483-10.217,19.921-15.849,32.244-15.849
		s23.761,5.632,32.233,15.849c4.108,4.945,3.409,12.288-1.536,16.384C331.066,208.582,328.436,209.455,325.818,209.455z"/>
	<path style="fill:#014463;" d="M232.727,285.021c-23.994,0-48-8.82-66.269-26.461c-4.62-4.468-4.748-11.834-0.279-16.454
		c4.468-4.608,11.834-4.748,16.454-0.279c27.625,26.671,72.564,26.671,100.189,0c4.631-4.457,11.997-4.329,16.454,0.279
		c4.468,4.62,4.34,11.985-0.279,16.454C280.727,276.189,256.721,285.021,232.727,285.021z"/>
</g>
<path style="fill:#F5B445;" d="M446.708,245.655c-10.182-4.364-17.641-13.708-19.956-24.995
	c-4.48-21.76-12.975-42.205-25.263-60.753c-6.214-9.379-7.517-20.969-3.503-30.999l9.926-24.809l-24.797,9.926
	c-4.073,1.629-8.413,2.153-12.753,2.06c15.965,27.462,25.274,59.299,25.274,93.37c0,102.831-83.351,186.182-186.182,186.182
	c-34.071,0-65.908-9.309-93.37-25.286c0.093,4.329-0.431,8.669-2.06,12.742l-9.926,24.809l24.797-9.926
	c3.852-1.536,7.924-2.292,12.009-2.292c6.586,0,13.219,1.955,18.991,5.795c18.56,12.288,39.005,20.794,60.765,25.263
	c11.299,2.327,20.643,9.786,24.995,19.956L256,470.819l10.345-24.122c4.364-10.182,13.708-17.641,24.995-19.956
	c21.76-4.48,42.205-12.975,60.753-25.263c9.367-6.202,20.969-7.505,30.999-3.503l24.809,9.926l-9.926-24.797
	c-4.015-10.042-2.7-21.632,3.503-30.999c12.288-18.56,20.794-38.993,25.263-60.765c2.327-11.299,9.786-20.643,19.956-24.995
	L470.819,256L446.708,245.655z"/>
<g>
	<path style="fill:#014463;" d="M256,453.818c-109.079,0-197.818-88.739-197.818-197.818S146.921,58.182,256,58.182
		S453.818,146.921,453.818,256S365.079,453.818,256,453.818z M256,81.455c-96.244,0-174.545,78.301-174.545,174.545
		S159.756,430.545,256,430.545S430.545,352.244,430.545,256S352.244,81.455,256,81.455z"/>
	<path style="fill:#014463;" d="M30.243,361.158c-4.573,0-8.902-2.711-10.752-7.191c-2.455-5.935,0.361-12.742,6.295-15.209
		l21.504-8.902c5.958-2.455,12.753,0.361,15.209,6.295c2.455,5.935-0.361,12.742-6.295,15.209l-21.516,8.902
		C33.233,360.867,31.732,361.158,30.243,361.158z"/>
	<path style="fill:#014463;" d="M460.265,183.028c-4.561,0-8.902-2.711-10.752-7.191c-2.455-5.935,0.361-12.742,6.295-15.209
		l21.504-8.902c5.923-2.432,12.753,0.361,15.209,6.295c2.455,5.935-0.361,12.742-6.295,15.209l-21.504,8.902
		C463.267,182.749,461.754,183.028,460.265,183.028z"/>
	<path style="fill:#014463;" d="M162.479,493.405c-1.478,0-2.991-0.291-4.445-0.896c-5.935-2.455-8.751-9.263-6.295-15.209
		l8.902-21.504c2.444-5.935,9.228-8.751,15.209-6.295c5.935,2.455,8.751,9.263,6.295,15.209l-8.902,21.504
		C171.392,490.694,167.052,493.405,162.479,493.405z"/>
	<path style="fill:#014463;" d="M340.608,63.383c-1.478,0-2.991-0.291-4.445-0.896c-5.935-2.455-8.751-9.263-6.295-15.209
		l8.902-21.504c2.455-5.935,9.239-8.762,15.209-6.295c5.935,2.455,8.751,9.263,6.295,15.209l-8.902,21.504
		C349.51,60.672,345.169,63.383,340.608,63.383z"/>
	<path style="fill:#014463;" d="M349.521,493.405c-4.573,0-8.902-2.711-10.752-7.191l-8.902-21.504
		c-2.455-5.935,0.361-12.742,6.295-15.209c5.958-2.455,12.742,0.361,15.209,6.295l8.902,21.504
		c2.455,5.935-0.361,12.742-6.295,15.209C352.5,493.114,350.999,493.405,349.521,493.405z"/>
	<path style="fill:#014463;" d="M171.392,63.383c-4.573,0-8.902-2.711-10.752-7.191l-8.902-21.504
		c-2.455-5.935,0.361-12.742,6.295-15.209c5.958-2.467,12.753,0.361,15.209,6.295l8.902,21.504
		c2.455,5.935-0.361,12.742-6.295,15.209C174.383,63.092,172.881,63.383,171.392,63.383z"/>
	<path style="fill:#014463;" d="M481.757,361.158c-1.489,0-3.002-0.291-4.457-0.896l-21.504-8.902
		c-5.935-2.455-8.751-9.263-6.295-15.209c2.455-5.946,9.297-8.751,15.209-6.295l21.504,8.902c5.935,2.455,8.751,9.263,6.295,15.209
		C490.659,358.447,486.319,361.158,481.757,361.158z"/>
	<path style="fill:#014463;" d="M51.735,183.028c-1.478,0-2.991-0.291-4.445-0.896l-21.504-8.902
		c-5.935-2.455-8.751-9.263-6.295-15.209c2.444-5.935,9.239-8.762,15.209-6.295l21.504,8.902c5.935,2.455,8.751,9.263,6.295,15.209
		C60.637,180.329,56.297,183.028,51.735,183.028z"/>
</g>
<g>
</g>
<g>
</g>
<g>
</g>
<g>
</g>
<g>
</g>
<g>
</g>
<g>
</g>
<g>
</g>
<g>
</g>
<g>
</g>
<g>
</g>
<g>
</g>
<g>
</g>
<g>
</g>
<g>
</g>
</svg>
